<svg width="18" height="19" fill="none" xmlns="http://www.w3.org/2000/svg"><path fill-rule="evenodd" clip-rule="evenodd" d="M3.651 2.1878a1.9776 1.9776 0 0 0-.4587.0521c-.2-.4424-.4641-.8393-.7646-1.1408C1.9177.5873 1.1134.3855 0 .3855v1.8c.6802 0 1.0716.0982 1.1595.1864.339.3402.634 1.0313.634 1.6136l.009.1273.8788 6.1732C1.211 10.3625.072 11.5084.0011 12.9409L0 13.8855c.0868 1.4795 1.2221 2.6177 2.6395 2.6985l.2035.0004c.369 1.0492 1.3659 1.8011 2.5377 1.8011 1.1714 0 2.168-.7513 2.5373-1.8h2.0997c.3694 1.0487 1.3659 1.8 2.5373 1.8 1.4858 0 2.6904-1.2088 2.6904-2.7s-1.2046-2.7-2.6904-2.7c-1.1714 0-2.1679.7513-2.5373 1.8H7.918c-.3693-1.0487-1.3659-1.8-2.5373-1.8-1.1714 0-2.168.7513-2.5373 1.8h-.153c-.4574-.0276-.8676-.4388-.8984-.9539l.0016-.8461c.0241-.4668.4316-.8757.9412-.9011l1.7704.0004.0128.0007h9.0386l.1323-.0422a2.3572 2.3572 0 0 0 1.482-1.3955l.0945-.1877.307-.6103c.3175-.6318.6351-1.2646.9446-1.8829.758-1.5144 1.2347-2.477 1.3403-2.7132.5421-1.2138-.5561-2.148-1.6787-2.1679L3.651 2.1878Zm9.594 8.0977H4.5852a.1529.1529 0 0 1-.1101-.126l-.8788-6.1733 12.4502.8947c-.2178.4459-.6138 1.2422-1.1323 2.278l-.013.026c-.2959.5913-.613 1.2232-.9302 1.8542l-.3066.6095-.1162.2309-.0437.102a.562.562 0 0 1-.2595.304Zm-.69 6.3c.4953 0 .8968-.4029.8968-.9 0-.4971-.4015-.9-.8968-.9s-.8968.4029-.8968.9c0 .4971.4015.9.8968.9Zm-6.2775-.9c0 .4971-.4015.9-.8968.9s-.8968-.4029-.8968-.9c0-.4971.4015-.9.8968-.9s.8968.4029.8968.9Z" fill="#fff" opacity=".6"/></svg>