<svg width="17" height="17" fill="none" xmlns="http://www.w3.org/2000/svg"><path fill-rule="evenodd" clip-rule="evenodd" d="M7.53 5.456c.414-.559.562-1.147.094-1.667-1.05-1.472-1.757-2.382-2.2-2.82C4.58.134 3.196.247 2.466.967c-.392.386-.525.52-.927.928C-.702 4.142.665 8.89 4.299 12.532c3.632 3.642 8.372 5.011 10.618 2.76.372-.358.686-.673.934-.935.715-.757.823-2.084-.005-2.945-.425-.442-1.291-1.116-2.823-2.213-.47-.42-1.025-.329-1.535.006-.246.161-.424.324-.761.662l-.612.613c-.081.081-1.176-.468-2.238-1.533-1.064-1.066-1.612-2.162-1.531-2.243l.612-.613.224-.228a4.36 4.36 0 0 0 .348-.407Zm3.714 6.156.612-.614c.185-.185.306-.3.404-.379 1.341.965 2.119 1.572 2.436 1.902.19.199.16.56-.005.736-.23.242-.527.54-.893.894-1.452 1.455-5.278.35-8.37-2.75C2.334 8.3 1.23 4.468 2.672 3.024c.401-.408.528-.535.914-.916.145-.143.54-.175.716-.001.341.337.974 1.149 1.905 2.448a3.38 3.38 0 0 1-.182.204 10.63 10.63 0 0 1-.196.2l-.612.614c-1.041 1.042-.155 2.816 1.53 4.505 1.684 1.688 3.456 2.577 4.497 1.534ZM9.765.442a7.598 7.598 0 0 1 6.611 6.62l-1.578.263A5.998 5.998 0 0 0 9.502 2.02l.263-1.58ZM9.24 3.602a4.398 4.398 0 0 1 3.98 3.985l-1.583.265a2.798 2.798 0 0 0-2.66-2.664l.263-1.586Z" fill="#293449"/></svg>