<svg width="16" height="17" fill="none" xmlns="http://www.w3.org/2000/svg"><path fill-rule="evenodd" clip-rule="evenodd" d="M7.09 5.456c.414-.559.562-1.147.093-1.667C6.132 2.317 5.424 1.407 4.98.969 4.137.134 2.75.247 2.018.967a67.3 67.3 0 0 0-.928.928C-1.155 4.142.214 8.89 3.853 12.532c3.638 3.642 8.385 5.011 10.634 2.76.372-.358.687-.673.935-.935.716-.757.825-2.084-.005-2.945-.425-.442-1.293-1.116-2.827-2.213-.47-.42-1.027-.329-1.537.006-.246.161-.425.324-.762.662l-.613.613c-.081.081-1.177-.468-2.242-1.533-1.064-1.066-1.613-2.162-1.533-2.243l.614-.613.224-.228c.137-.144.25-.275.348-.407Zm3.719 6.156.613-.614c.185-.185.306-.3.404-.379 1.343.965 2.122 1.572 2.44 1.902.19.199.16.56-.005.736-.23.242-.528.54-.894.894-1.455 1.455-5.286.35-8.383-2.75C1.886 8.3.781 4.468 2.224 3.024c.402-.408.53-.535.916-.916.145-.143.54-.175.717-.001.341.337.975 1.149 1.907 2.448a3.38 3.38 0 0 1-.181.204c-.054.057-.1.102-.197.2l-.613.614c-1.043 1.042-.155 2.816 1.532 4.505 1.686 1.688 3.461 2.577 4.504 1.534ZM9.328.442a7.604 7.604 0 0 1 6.62 6.62l-1.58.263A6.002 6.002 0 0 0 9.065 2.02l.263-1.58ZM8.8 3.602a4.401 4.401 0 0 1 3.985 3.985l-1.585.265a2.8 2.8 0 0 0-2.664-2.664L8.8 3.603Z" fill="#293449"/></svg>