<svg width="17" height="17" fill="none" xmlns="http://www.w3.org/2000/svg"><path fill-rule="evenodd" clip-rule="evenodd" d="M8.47 16.39a8 8 0 1 1 0-16 8 8 0 0 1 0 16Zm5.37-4.28a6.54 6.54 0 1 0-10.75 0c.82-1.08 2.73-1.54 5.37-1.54-1.63 0-2.9-1.15-2.9-3.64a2.8 2.8 0 0 1 2.9-2.9c1.76 0 2.91 1.39 2.91 3.05 0 2.38-1.29 3.48-2.9 3.49 2.64 0 4.55.46 5.37 1.54ZM12.8 13.3c-.22-.77-1.74-1.27-4.33-1.27-2.6 0-4.12.5-4.34 1.27a6.5 6.5 0 0 0 8.67 0ZM7 6.93c0 1.65.6 2.18 1.46 2.18.85 0 1.45-.5 1.45-2.03 0-.91-.57-1.6-1.45-1.6-.92 0-1.46.59-1.46 1.45Z" fill="#fff" opacity=".8"/></svg>