<svg width="109" height="18" fill="none" xmlns="http://www.w3.org/2000/svg"><path fill-rule="evenodd" clip-rule="evenodd" d="M104.458 2.659v14.79h-2.11V2.66h-3.75V1.015h9.611V2.66h-3.751Zm-8.123 8.698c-.368.462-.829.79-1.384.986-.554.196-1.215.294-1.98.294-.36 0-.767-.024-1.22-.07a11.231 11.231 0 0 1-1.125-.165v5.048h-2.11V1.25a11.043 11.043 0 0 1 1.793-.364c.602-.07 1.255-.106 1.958-.106.938 0 1.735.098 2.391.294.657.195 1.188.52 1.595.974.406.454.703 1.057.89 1.808.188.751.282 1.683.282 2.794 0 1.142-.09 2.097-.27 2.864-.18.767-.453 1.382-.82 1.843Zm-1.196-6.82c-.117-.564-.3-1.01-.551-1.338a1.992 1.992 0 0 0-.95-.693c-.382-.133-.84-.2-1.371-.2h-1.641v8.687h1.641c.531 0 .989-.066 1.371-.2.383-.132.7-.363.95-.692.25-.329.434-.775.551-1.338.117-.564.176-1.268.176-2.113s-.059-1.55-.176-2.113Zm-11.898 8.687h-4.69l-1.054 4.226h-2.11l3.985-16.435h3.048l3.986 16.435h-2.11l-1.055-4.226Zm-2.298-9.861h-.094l-1.946 8.217h3.986l-1.946-8.217ZM70.815 5.24h-.117l-3.4 10.096h-2.11l-3.4-10.096h-.116l-.704 12.209h-2.11l.938-16.435h2.579l3.821 11.27h.094l3.822-11.27h2.579l.937 16.435h-2.11L70.815 5.24ZM55.06 15.924c-.438.642-.965 1.095-1.582 1.361-.618.267-1.325.4-2.122.4-.797 0-1.505-.133-2.122-.4-.617-.266-1.145-.72-1.582-1.361-.438-.642-.77-1.507-.997-2.595-.227-1.087-.34-2.453-.34-4.097 0-1.643.114-3.009.34-4.097.227-1.087.559-1.952.997-2.594.437-.642.965-1.096 1.582-1.362C49.851.913 50.56.78 51.356.78c.797 0 1.504.133 2.122.4.617.265 1.145.72 1.582 1.361.438.642.77 1.507.996 2.594.227 1.088.34 2.454.34 4.097 0 1.644-.113 3.01-.34 4.097-.226 1.088-.558 1.953-.996 2.595ZM54.04 5.758c-.164-.908-.379-1.628-.645-2.16-.265-.533-.578-.9-.937-1.104a2.212 2.212 0 0 0-1.102-.305c-.375 0-.743.102-1.102.305-.36.204-.672.571-.938 1.104-.266.532-.48 1.252-.645 2.16-.164.907-.246 2.066-.246 3.474 0 1.41.082 2.567.246 3.475.165.908.38 1.628.645 2.16.266.532.578.9.938 1.104.36.203.727.305 1.102.305.375 0 .742-.102 1.102-.305.36-.204.672-.572.938-1.104.265-.532.48-1.252.644-2.16.164-.908.246-2.066.246-3.475 0-1.408-.082-2.567-.246-3.474ZM41.392 9.937h-4.924v7.513h-2.11V1.015h2.11v7.278h4.924V1.015h2.11V17.45h-2.11V9.937ZM30.256 17.45l-2.93-7.044-2.93 7.044h-2.11l3.516-8.452-3.165-7.983h2.11l2.579 6.574 2.579-6.574h2.11L28.85 8.998l3.516 8.452h-2.11ZM13.024 1.015h7.972V2.66h-5.861v5.4h5.157v1.643h-5.158v6.104h5.862v1.644h-7.972V1.015ZM7.398 17.45h-2.11V2.659H1.536V1.015h9.613V2.66H7.398v14.79Z" fill="#fff"/></svg>